<svg width="33" height="33" viewBox="0 0 33 33" fill="none" xmlns="http://www.w3.org/2000/svg">
<path d="M32.9395 8.63281C32.8418 8.51563 32.793 8.35937 32.793 8.21289C31.3477 5.66406 31.2598 2.54883 29.8145 0C25.7422 2.28516 22.959 6.35742 20.3027 10.0684C18.7012 12.3047 17.2656 14.5996 15.9473 17.0117C14.6191 19.4336 13.3301 21.8848 11.8457 24.2188C11.6309 24.5508 11.0742 24.707 10.8398 24.2871C10.1367 22.9883 9.3457 21.7285 8.4375 20.5566C7.65625 19.5508 6.76758 18.6523 5.9668 17.666C4.72656 16.1328 3.39844 14.2969 1.67969 13.2324C1.05469 15.2832 0.322266 17.3145 0 19.4434C2.40234 20.9961 4.23828 23.2422 6.00586 25.459C8.07617 28.0566 10.2148 30.5371 12.5391 32.9102C14.043 30.9473 15.0781 28.6621 16.3281 26.5332C17.8027 24.0234 19.5215 21.709 21.3477 19.4434C23.1738 17.1777 25.2832 15.1758 27.4023 13.2031C28.3984 12.2754 29.5703 11.5137 30.6348 10.6641C31.4355 10.0195 32.2168 9.35547 32.9492 8.64258C32.9492 8.65234 32.9492 8.64258 32.9395 8.63281Z" fill="#3AB37C"/>
</svg>
