<svg width="36" height="36" viewBox="0 0 36 36" fill="none" xmlns="http://www.w3.org/2000/svg">
<path d="M6.93 27.18C8.46 26.01 10.17 25.0878 12.06 24.4134C13.95 23.739 15.93 23.4012 18 23.4C20.07 23.3988 22.05 23.7366 23.94 24.4134C25.83 25.0902 27.54 26.0124 29.07 27.18C30.12 25.95 30.9378 24.555 31.5234 22.995C32.109 21.435 32.4012 19.77 32.4 18C32.4 14.01 30.9978 10.6122 28.1934 7.8066C25.389 5.001 21.9912 3.5988 18 3.6C14.0088 3.6012 10.611 5.004 7.8066 7.8084C5.0022 10.6128 3.6 14.01 3.6 18C3.6 19.77 3.8928 21.435 4.4784 22.995C5.064 24.555 5.8812 25.95 6.93 27.18ZM18 19.8C16.23 19.8 14.7372 19.1928 13.5216 17.9784C12.306 16.764 11.6988 15.2712 11.7 13.5C11.7012 11.7288 12.309 10.236 13.5234 9.0216C14.7378 7.8072 16.23 7.2 18 7.2C19.77 7.2 21.2628 7.8078 22.4784 9.0234C23.694 10.239 24.3012 11.7312 24.3 13.5C24.2988 15.2688 23.6916 16.7616 22.4784 17.9784C21.2652 19.1952 19.7724 19.8024 18 19.8ZM18 36C15.51 36 13.17 35.5272 10.98 34.5816C8.79 33.636 6.885 32.3538 5.265 30.735C3.645 29.1162 2.3628 27.2112 1.4184 25.02C0.474002 22.8288 0.00120228 20.4888 2.27848e-06 18C-0.00119772 15.5112 0.471602 13.1712 1.4184 10.98C2.3652 8.7888 3.6474 6.8838 5.265 5.265C6.8826 3.6462 8.7876 2.364 10.98 1.4184C13.1724 0.4728 15.5124 0 18 0C20.4876 0 22.8276 0.4728 25.02 1.4184C27.2124 2.364 29.1174 3.6462 30.735 5.265C32.3526 6.8838 33.6354 8.7888 34.5834 10.98C35.5314 13.1712 36.0036 15.5112 36 18C35.9964 20.4888 35.5236 22.8288 34.5816 25.02C33.6396 27.2112 32.3574 29.1162 30.735 30.735C29.1126 32.3538 27.2076 33.6366 25.02 34.5834C22.8324 35.5302 20.4924 36.0024 18 36Z" fill="white"/>
</svg>
