<svg width="49" height="49" viewBox="0 0 49 49" fill="none" xmlns="http://www.w3.org/2000/svg">
<path d="M9.4325 36.995C11.515 35.4025 13.8425 34.1473 16.415 33.2293C18.9875 32.3114 21.6825 31.8516 24.5 31.85C27.3175 31.8484 30.0125 32.3081 32.585 33.2293C35.1575 34.1505 37.485 35.4058 39.5675 36.995C40.9966 35.3208 42.1098 33.4221 42.9068 31.2987C43.7039 29.1754 44.1016 26.9092 44.1 24.5C44.1 19.0692 42.1914 14.4444 38.3743 10.6256C34.5572 6.80691 29.9324 4.89837 24.5 4.9C19.0675 4.90163 14.4427 6.811 10.6256 10.6281C6.80855 14.4452 4.9 19.0692 4.9 24.5C4.9 26.9092 5.29853 29.1754 6.0956 31.2987C6.89266 33.4221 8.00496 35.3208 9.4325 36.995ZM24.5 26.95C22.0908 26.95 20.059 26.1235 18.4044 24.4706C16.7498 22.8177 15.9234 20.7858 15.925 18.375C15.9266 15.9642 16.7539 13.9323 18.4068 12.2794C20.0598 10.6265 22.0908 9.8 24.5 9.8C26.9092 9.8 28.941 10.6273 30.5956 12.2818C32.2501 13.9364 33.0766 15.9675 33.075 18.375C33.0733 20.7825 32.2469 22.8144 30.5956 24.4706C28.9443 26.1268 26.9124 26.9533 24.5 26.95ZM24.5 49C21.1108 49 17.9258 48.3565 14.945 47.0694C11.9642 45.7823 9.37125 44.0371 7.16625 41.8337C4.96125 39.6304 3.21603 37.0375 1.9306 34.055C0.64517 31.0725 0.00163643 27.8875 3.10126e-06 24.5C-0.00163023 21.1125 0.641903 17.9275 1.9306 14.945C3.2193 11.9625 4.96452 9.36961 7.16625 7.16625C9.36798 4.96288 11.9609 3.21767 14.945 1.9306C17.9291 0.643533 21.1141 0 24.5 0C27.8859 0 31.0709 0.643533 34.055 1.9306C37.0391 3.21767 39.632 4.96288 41.8337 7.16625C44.0355 9.36961 45.7815 11.9625 47.0718 14.945C48.3622 17.9275 49.0049 21.1125 49 24.5C48.9951 27.8875 48.3515 31.0725 47.0694 34.055C45.7872 37.0375 44.042 39.6304 41.8337 41.8337C39.6255 44.0371 37.0325 45.7831 34.055 47.0718C31.0774 48.3605 27.8924 49.0033 24.5 49Z" fill="#270211"/>
</svg>
